<svg width="293" height="250" viewBox="0 0 293 250" fill="none" xmlns="http://www.w3.org/2000/svg">
<path d="M83.1556 51.7958L82.2878 52.9499C63.3989 78.3566 58.5242 113.429 65.2637 143.895C70.6367 168.157 81.4015 192.281 101.352 207.985C122.281 224.464 156.163 233.706 181.736 223.753C187.499 221.536 192.688 218.048 196.918 213.548C201.147 209.049 204.307 203.654 206.164 197.765C208.694 189.918 208.934 181.535 210.522 173.438C213.135 159.996 222.958 150.847 234.175 143.895C245.826 136.704 257.384 130.666 265.296 119.061C272.381 108.571 276.206 96.2213 276.291 83.5636C276.439 54.2331 257.827 28.8171 231.885 16.2153C210.208 5.69987 184.977 4.0658 161.222 8.091C131.541 13.141 101.777 27.5523 83.1556 51.7958Z" fill="#EDE8F9"/>
<path d="M244.205 191.534C254.522 189.099 260.912 178.761 258.477 168.444C256.042 158.128 245.704 151.738 235.387 154.173C225.071 156.608 218.681 166.946 221.116 177.262C223.551 187.579 233.888 193.969 244.205 191.534Z" fill="#EDE8F9"/>
<path d="M52.8477 171.001H185.264H237.01V128.487V30.627H52.8477V171.001Z" fill="white"/>
<path d="M52.8477 49.9498H185.264H237.01V44.1059V30.627H52.8477V49.9498Z" fill="#020202"/>
<path d="M237.009 171.731H52.8466C52.6531 171.731 52.4676 171.654 52.3309 171.517C52.1941 171.38 52.1172 171.195 52.1172 171.001V30.6733C52.1172 30.5779 52.1361 30.4835 52.1729 30.3956C52.2096 30.3076 52.2637 30.2278 52.3315 30.1608C52.3994 30.0938 52.4798 30.041 52.5682 30.0053C52.6566 29.9697 52.7512 29.952 52.8466 29.9532H237.009C237.104 29.952 237.199 29.9697 237.287 30.0053C237.376 30.041 237.456 30.0938 237.524 30.1608C237.592 30.2278 237.646 30.3076 237.683 30.3956C237.719 30.4835 237.738 30.5779 237.738 30.6733V171.001C237.738 171.195 237.661 171.38 237.525 171.517C237.388 171.654 237.202 171.731 237.009 171.731ZM53.5667 170.281H236.289V31.3565H53.5667V170.281Z" fill="#491DC5"/>
<path d="M144.926 139.477C144.958 139.299 145.085 139.066 145.214 139.028C146.302 138.344 147.134 137.175 147.172 135.877C147.196 134.248 144.674 133.202 144.968 132.108C145.089 131.569 144.517 131.15 144.924 130.247C145.829 128.47 147.854 127.258 149.58 128.455C149.681 128.509 149.703 128.586 149.781 128.564L149.881 128.618C150.058 128.65 150.215 128.799 150.366 128.838L150.544 128.87C150.621 128.847 150.721 128.902 150.824 128.871C151.002 128.903 151.105 128.872 151.257 128.912C151.615 128.89 151.821 128.829 152.108 128.661C152.24 128.538 152.526 128.369 152.731 128.113C152.943 127.883 153.019 127.665 153.186 127.28C153.688 125.845 152.295 124.829 154.369 124.638L157.96 124.362C159.222 124.27 159.197 125.424 159.327 126.337C159.418 127.596 159.462 128.506 160.639 129.362C161.711 130.053 163.24 130.105 164.313 129.37C165.749 128.443 167.403 132.626 167.808 133.43C168.213 134.233 165.305 135.874 165.137 137.014C165.037 137.91 165.287 138.76 165.912 139.359C167.272 140.832 166.01 141.4 165.151 142.576C164.939 142.806 164.602 143.661 164.419 143.799C163.424 144.511 162.501 143.665 161.512 143.732C159.393 143.77 160.002 146.975 158.682 146.777C158.605 146.799 158.527 146.822 158.424 146.853C157.01 146.906 155.633 146.892 154.208 147.005C153.799 147.041 153.373 146.831 153.329 146.397C153.228 146.343 153.048 146.396 152.948 146.341C152.537 146.183 152.349 145.735 152.497 145.383C152.552 145.283 152.606 145.183 152.576 145.08C152.631 144.98 152.608 144.903 152.608 144.903C152.585 144.826 152.64 144.726 152.609 144.623C152.587 144.546 152.564 144.469 152.611 144.343C152.588 144.266 152.588 144.266 152.565 144.189L152.52 144.034C152.497 143.957 152.474 143.88 152.474 143.88C152.452 143.803 152.429 143.725 152.321 143.645C152.298 143.568 152.198 143.514 152.168 143.411C152.145 143.334 152.045 143.279 151.915 143.122C151.892 143.045 151.814 143.067 151.792 142.99C151.692 142.936 151.591 142.881 151.458 142.809C151.358 142.755 151.358 142.755 151.258 142.7C151.258 142.7 151.158 142.646 151.08 142.669C150.903 142.637 150.777 142.59 150.699 142.613C150.522 142.581 150.135 142.695 149.955 142.749C149.8 142.794 149.568 142.863 149.436 142.986C149.178 143.062 149.201 143.139 149.072 143.177C148.708 143.368 148.426 143.647 148.18 143.859C147.89 144.113 147.358 144.018 147.138 143.747C147.115 143.67 147.092 143.593 147.092 143.593C146.915 143.561 146.712 143.537 146.592 143.321C145.879 142.328 145.147 141.369 144.512 140.354C144.518 140.184 144.585 139.745 144.926 139.477ZM155.884 138.903C157.092 138.91 158.076 138.257 158.485 137.269C158.895 136.281 158.646 135.152 157.932 134.439L157.831 134.385C157.709 134.253 157.601 134.173 157.46 134.075C157.36 134.021 157.36 134.021 157.126 133.894C156.823 133.815 156.663 133.751 156.305 133.772C155.796 133.755 155.254 133.914 154.787 134.136C153.827 134.587 152.791 135.731 153.037 136.945C153.149 137.612 153.666 138.13 154.267 138.457C154.742 138.736 155.315 138.875 155.884 138.903Z" fill="#020202"/>
<path d="M167.868 15.9986C167.897 15.8398 168.011 15.6307 168.126 15.5966C169.101 14.9834 169.847 13.9362 169.881 12.7731C169.903 11.3129 167.642 10.3752 167.906 9.39509C168.014 8.91185 167.502 8.53657 167.866 7.72732C168.678 6.13449 170.492 5.04798 172.04 6.12089C172.129 6.16963 172.15 6.23881 172.219 6.21837L172.309 6.26712C172.468 6.29543 172.608 6.4296 172.744 6.46472L172.903 6.49303C172.972 6.47259 173.062 6.52133 173.154 6.49407C173.313 6.52238 173.406 6.49513 173.542 6.53024C173.863 6.51085 174.047 6.45634 174.304 6.3054C174.423 6.19533 174.68 6.04438 174.863 5.81481C175.053 5.6083 175.121 5.4128 175.271 5.06793C175.721 3.78224 174.473 2.87182 176.331 2.69992L179.549 2.45308C180.68 2.37027 180.658 3.40438 180.774 4.22255C180.856 5.35152 180.895 6.16707 181.95 6.93388C182.911 7.55289 184.282 7.60007 185.243 6.94072C186.53 6.10998 188.012 9.85909 188.375 10.5793C188.738 11.2994 186.132 12.7696 185.982 13.7916C185.892 14.5951 186.116 15.3561 186.676 15.8929C187.895 17.2132 186.764 17.7221 185.994 18.7761C185.804 18.9826 185.502 19.7484 185.338 19.872C184.446 20.511 183.619 19.752 182.733 19.8128C180.834 19.8463 181.379 22.7186 180.196 22.5409C180.127 22.5613 180.058 22.5818 179.965 22.609C178.698 22.6567 177.464 22.6446 176.187 22.7453C175.82 22.7783 175.438 22.5901 175.399 22.2007C175.309 22.1519 175.147 22.1996 175.057 22.1509C174.689 22.0089 174.52 21.6074 174.654 21.2924C174.703 21.2027 174.751 21.1131 174.724 21.0209C174.773 20.9312 174.753 20.8621 174.753 20.8621C174.732 20.7929 174.781 20.7032 174.754 20.611C174.734 20.5418 174.713 20.4726 174.755 20.3599C174.735 20.2908 174.735 20.2908 174.715 20.2216L174.674 20.0832C174.654 20.014 174.633 19.9448 174.633 19.9448C174.613 19.8756 174.592 19.8065 174.496 19.7346C174.475 19.6655 174.386 19.6167 174.358 19.5245C174.338 19.4553 174.248 19.4065 174.131 19.2656C174.111 19.1964 174.042 19.2168 174.021 19.1476C173.932 19.0989 173.842 19.0501 173.722 18.9851C173.632 18.9364 173.632 18.9364 173.543 18.8876C173.543 18.8876 173.453 18.8389 173.384 18.8593C173.225 18.831 173.112 18.7891 173.042 18.8095C172.883 18.7812 172.537 18.8834 172.375 18.9311C172.236 18.972 172.028 19.0333 171.91 19.1434C171.679 19.2115 171.699 19.2807 171.584 19.3148C171.257 19.4862 171.005 19.7362 170.784 19.9264C170.525 20.1534 170.048 20.0685 169.85 19.8258C169.83 19.7566 169.81 19.6874 169.81 19.6874C169.651 19.6591 169.468 19.6377 169.361 19.4437C168.722 18.5543 168.067 17.6947 167.497 16.7848C167.502 16.6328 167.562 16.2392 167.868 15.9986ZM177.689 15.4845C178.771 15.4913 179.653 14.9054 180.02 14.0201C180.387 13.1348 180.164 12.1228 179.524 11.4844L179.434 11.4356C179.324 11.3177 179.227 11.2459 179.101 11.1578C179.011 11.1091 179.011 11.1091 178.802 10.9953C178.53 10.9251 178.387 10.8669 178.066 10.8863C177.61 10.8706 177.124 11.0137 176.706 11.2123C175.845 11.6164 174.917 12.6421 175.137 13.7302C175.238 14.3272 175.701 14.7921 176.24 15.0846C176.665 15.3351 177.179 15.4593 177.689 15.4845Z" stroke="black" stroke-width="1.69663" stroke-miterlimit="10"/>
<path d="M254.568 123.567C254.615 123.309 254.8 122.97 254.988 122.914C256.57 121.919 257.782 120.218 257.837 118.33C257.872 115.959 254.201 114.437 254.629 112.846C254.806 112.061 253.974 111.452 254.565 110.138C255.883 107.552 258.829 105.788 261.341 107.53C261.487 107.609 261.52 107.721 261.633 107.688L261.778 107.767C262.036 107.813 262.264 108.031 262.485 108.088L262.743 108.134C262.855 108.101 263.001 108.18 263.151 108.136C263.409 108.181 263.559 108.137 263.78 108.194C264.301 108.163 264.601 108.074 265.018 107.829C265.21 107.65 265.628 107.405 265.926 107.033C266.235 106.697 266.345 106.38 266.588 105.82C267.318 103.733 265.292 102.254 268.309 101.975L273.533 101.575C275.37 101.44 275.335 103.119 275.522 104.447C275.655 106.28 275.719 107.605 277.432 108.85C278.993 109.855 281.217 109.931 282.778 108.861C284.868 107.512 287.274 113.599 287.864 114.768C288.453 115.937 284.222 118.324 283.977 119.984C283.832 121.288 284.196 122.524 285.105 123.395C287.083 125.539 285.247 126.365 283.998 128.077C283.689 128.412 283.199 129.655 282.932 129.856C281.484 130.893 280.142 129.661 278.703 129.76C275.619 129.814 276.505 134.477 274.584 134.189C274.472 134.222 274.359 134.255 274.209 134.3C272.152 134.377 270.148 134.357 268.075 134.521C267.479 134.574 266.859 134.269 266.795 133.637C266.649 133.558 266.387 133.635 266.241 133.556C265.643 133.325 265.369 132.673 265.585 132.162C265.665 132.016 265.744 131.871 265.7 131.721C265.78 131.576 265.746 131.463 265.746 131.463C265.713 131.351 265.793 131.205 265.749 131.056C265.715 130.943 265.682 130.831 265.751 130.648C265.718 130.536 265.718 130.536 265.685 130.423L265.618 130.199C265.585 130.086 265.552 129.974 265.552 129.974C265.519 129.862 265.486 129.749 265.329 129.633C265.296 129.52 265.15 129.441 265.106 129.292C265.073 129.179 264.927 129.1 264.738 128.871C264.704 128.759 264.592 128.792 264.559 128.68C264.413 128.601 264.267 128.521 264.073 128.416C263.927 128.337 263.927 128.337 263.782 128.258C263.782 128.258 263.636 128.178 263.523 128.212C263.265 128.166 263.082 128.098 262.969 128.131C262.711 128.085 262.148 128.251 261.886 128.328C261.661 128.395 261.323 128.494 261.131 128.673C260.756 128.784 260.789 128.896 260.601 128.951C260.071 129.229 259.661 129.635 259.303 129.944C258.882 130.313 258.107 130.175 257.787 129.781C257.754 129.669 257.721 129.556 257.721 129.556C257.463 129.51 257.167 129.475 256.992 129.16C255.955 127.716 254.891 126.321 253.966 124.843C253.975 124.597 254.072 123.958 254.568 123.567ZM270.513 122.732C272.27 122.743 273.703 121.792 274.299 120.355C274.894 118.917 274.532 117.274 273.493 116.238L273.347 116.159C273.168 115.967 273.011 115.851 272.806 115.708C272.66 115.628 272.66 115.628 272.321 115.444C271.879 115.33 271.647 115.235 271.126 115.267C270.385 115.241 269.597 115.474 268.917 115.796C267.52 116.452 266.012 118.117 266.37 119.884C266.534 120.853 267.286 121.608 268.16 122.083C268.851 122.49 269.686 122.691 270.513 122.732Z" stroke="black" stroke-width="2.75463" stroke-miterlimit="10"/>
<path d="M237.009 50.6787H52.8463C52.7443 50.6902 52.641 50.6801 52.5432 50.6489C52.4453 50.6177 52.3552 50.5663 52.2786 50.4979C52.202 50.4294 52.1407 50.3456 52.0987 50.2519C52.0568 50.1582 52.0352 50.0566 52.0352 49.9539C52.0352 49.8513 52.0568 49.7497 52.0987 49.656C52.1407 49.5622 52.202 49.4785 52.2786 49.41C52.3552 49.3416 52.4453 49.2902 52.5432 49.259C52.641 49.2278 52.7443 49.2177 52.8463 49.2292H237.009C237.111 49.2177 237.214 49.2278 237.312 49.259C237.41 49.2902 237.5 49.3416 237.577 49.41C237.653 49.4785 237.714 49.5622 237.756 49.656C237.798 49.7497 237.82 49.8513 237.82 49.9539C237.82 50.0566 237.798 50.1582 237.756 50.2519C237.714 50.3456 237.653 50.4294 237.577 50.4979C237.5 50.5663 237.41 50.6177 237.312 50.6489C237.214 50.6801 237.111 50.6902 237.009 50.6787Z" fill="#491DC5"/>
<path d="M3.27163 199.029L10.5926 180.306C10.5926 180.306 10.2327 149.582 12.827 135.318C16.806 113.42 26.8505 111.149 26.8505 111.149C26.8505 111.149 35.418 88.0684 52.562 75.0696C69.9923 61.9046 87.4408 60.6305 90.7182 71.229C94.208 82.4829 76.0578 86.4989 68.0166 102.803C62.6158 113.734 62.7541 118.377 62.7541 118.377C62.7541 118.377 81.7078 110.521 83.7112 132.549C83.7112 132.549 94.0972 121.166 106.237 116.513C117.316 112.275 130.047 116.586 128.801 127.905C127.628 138.605 106.201 148.022 101.474 162.064C95.8607 178.737 95.0113 188.92 78.3935 205.861L72.5495 223.827C71.0484 228.448 68.647 232.727 65.4836 236.415C62.3203 240.104 58.4577 243.129 54.1188 245.317C49.78 247.505 45.0508 248.812 40.2042 249.163C35.3576 249.513 30.4896 248.9 25.8811 247.359C21.1476 245.778 16.7852 243.25 13.0591 239.93C9.33301 236.609 6.32111 232.566 4.20633 228.046C2.09156 223.525 0.918032 218.622 0.757361 213.633C0.59669 208.645 1.45215 203.676 3.27163 199.029Z" fill="white"/>
<path d="M33.5241 222.129C26.6599 219.842 20.5258 215.774 15.7489 210.34C10.972 204.907 7.72362 198.302 6.33554 191.201L3.27042 199.03C1.45114 203.678 0.596228 208.647 0.757504 213.636C0.91878 218.624 2.09282 223.528 4.2085 228.049C6.32419 232.569 9.33733 236.613 13.0644 239.932C16.7915 243.252 21.1548 245.779 25.8891 247.36C30.4976 248.901 35.3656 249.514 40.2122 249.163C45.0588 248.813 49.788 247.506 54.1269 245.318C58.4657 243.13 62.3283 240.105 65.4917 236.416C68.655 232.728 71.0565 228.449 72.5575 223.828L76.7859 210.838C71.4462 216.712 64.5138 220.907 56.8327 222.911C49.1517 224.916 41.0534 224.644 33.5241 222.129Z" fill="#491DC5"/>
<path d="M137.7 66.8216C148.633 77.7544 148.633 95.48 137.7 106.413C126.767 117.346 109.042 117.346 98.1088 106.413C87.176 95.48 87.176 77.7544 98.1088 66.8216C109.042 55.8889 126.767 55.8889 137.7 66.8216Z" fill="#491DC5" stroke="black" stroke-width="1.13072"/>
<path d="M119.686 55.549C136.15 55.8488 149.423 69.2151 149.569 85.7174H119.686V55.549Z" fill="white" stroke="black" stroke-width="1.13072"/>
<path d="M37.5865 250.001C33.5317 249.996 29.5042 249.339 25.6587 248.053C20.8302 246.442 16.3798 243.866 12.578 240.482C8.77613 237.097 5.70215 232.975 3.5433 228.365C1.38444 223.755 0.185838 218.755 0.0199452 213.668C-0.145948 208.58 0.724422 203.512 2.57839 198.772L9.85341 180.169C9.85341 177.88 9.60408 148.863 12.0968 135.19C15.725 115.24 24.32 111.187 26.2772 110.559C27.4312 107.623 36.1278 86.5554 52.1271 74.489C63.8057 65.6631 76.4999 61.6194 84.4395 64.1767C86.081 64.6407 87.5791 65.5106 88.7957 66.7062C90.0123 67.9018 90.9082 69.3846 91.4006 71.0177C93.4686 77.6741 88.391 82.0317 82.5194 87.0724C77.6817 91.2361 72.1886 95.9445 68.6712 103.127C64.8491 110.864 63.8428 115.415 63.5843 117.317C66.0585 116.523 72.207 115.083 77.2939 118.157C81.0883 120.447 83.4333 124.739 84.2641 130.925C87.2461 127.906 95.952 119.689 105.978 115.84C112.995 113.153 120.556 113.762 125.255 117.381C126.856 118.599 128.099 120.227 128.851 122.092C129.604 123.958 129.838 125.992 129.529 127.98C128.911 133.584 123.15 138.745 117.038 144.21C110.927 149.675 104.483 155.427 102.175 162.296C101.251 165.065 100.439 167.66 99.6633 170.161C95.8781 182.403 92.887 192.088 79.0481 206.25L73.2226 224.049C70.7676 231.574 66.0019 238.132 59.6038 242.792C53.2058 247.451 45.5013 249.974 37.5865 250.001ZM3.2708 199.03L3.94472 199.298C2.1844 203.795 1.34461 208.599 1.47486 213.427C1.60511 218.254 2.70269 223.006 4.70295 227.401C6.7032 231.797 9.56528 235.746 13.1196 239.015C16.6739 242.284 20.8483 244.807 25.3952 246.433C29.9421 248.059 34.7693 248.757 39.5907 248.484C44.4121 248.211 49.1295 246.973 53.4637 244.843C57.7979 242.714 61.6608 239.736 64.8233 236.087C67.9857 232.437 70.3835 228.19 71.8747 223.597L77.7095 205.641C77.7443 205.532 77.8044 205.434 77.8848 205.354C91.5761 191.377 94.3825 182.274 98.2692 169.737C99.0447 167.226 99.8481 164.631 100.79 161.834C103.218 154.605 109.745 148.771 116.06 143.121C121.959 137.858 127.526 132.882 128.061 127.823C128.34 126.086 128.144 124.306 127.494 122.671C126.844 121.036 125.764 119.607 124.368 118.535C120.131 115.258 112.948 114.723 106.504 117.197C94.6688 121.73 84.3472 132.891 84.2549 133.039C84.16 133.143 84.037 133.216 83.9008 133.251C83.7647 133.285 83.6215 133.279 83.4888 133.233C83.3565 133.188 83.2399 133.105 83.1532 132.996C83.0664 132.886 83.0131 132.754 82.9995 132.614C82.4086 126.078 80.2298 121.628 76.537 119.403C70.7669 115.914 63.1134 119.016 63.0303 119.043C62.9234 119.089 62.8069 119.108 62.6911 119.098C62.5752 119.089 62.4634 119.051 62.3656 118.988C62.2665 118.924 62.1846 118.836 62.1267 118.733C62.0688 118.63 62.0366 118.515 62.0331 118.397C62.0331 118.203 61.9501 113.449 67.3601 102.481C71.0529 95.0397 76.5923 90.2298 81.5869 85.9738C87.5232 80.8776 91.8068 77.194 90.025 71.4424C89.6028 70.0321 88.8288 68.7524 87.7758 67.7236C86.7228 66.6948 85.4254 65.9508 84.0056 65.5616C76.4907 63.1335 64.3229 67.0941 53.0043 75.6523C36.2296 88.328 27.6067 111.168 27.5236 111.399C27.4842 111.513 27.4159 111.615 27.3252 111.694C27.2346 111.773 27.1246 111.827 27.0065 111.851C26.9142 111.851 17.3683 114.399 13.537 135.449C10.989 149.482 11.3212 179.994 11.3212 180.298C11.3352 180.387 11.3352 180.477 11.3212 180.566L3.98169 199.298L3.2708 199.03Z" fill="#491DC5"/>
<path d="M23.3685 127.757H23.2116C23.0252 127.715 22.8626 127.601 22.759 127.441C22.6554 127.28 22.619 127.085 22.6576 126.898L26.1011 111.01C26.1415 110.822 26.2548 110.659 26.4158 110.555C26.5768 110.451 26.7724 110.415 26.9597 110.456C27.147 110.496 27.3106 110.609 27.4145 110.77C27.5184 110.931 27.5541 111.127 27.5137 111.314L24.1163 127.212C24.0739 127.375 23.9761 127.519 23.8398 127.618C23.7034 127.717 23.5369 127.766 23.3685 127.757Z" fill="#491DC5"/>
<path d="M68.9281 138.394C68.8289 138.395 68.7307 138.373 68.6419 138.329C68.4717 138.254 68.3374 138.116 68.2668 137.944C68.1962 137.771 68.1948 137.579 68.2632 137.406L72.2238 128.238C72.2997 128.062 72.4426 127.923 72.621 127.852C72.7993 127.781 72.9985 127.784 73.1747 127.86C73.351 127.936 73.4901 128.078 73.5611 128.257C73.6321 128.435 73.6293 128.634 73.5534 128.811L69.5928 137.978C69.533 138.104 69.4387 138.209 69.321 138.283C69.2032 138.356 69.067 138.395 68.9281 138.394Z" fill="#491DC5"/>
<path d="M72.4457 139.344C71.0939 139.347 69.7667 138.983 68.6052 138.291C61.9027 134.322 62.0688 119.015 62.078 118.359C62.0805 118.17 62.1574 117.989 62.2922 117.856C62.4269 117.723 62.6088 117.648 62.7982 117.648C62.8935 117.65 62.9877 117.67 63.0752 117.708C63.1627 117.746 63.2419 117.8 63.308 117.869C63.3741 117.938 63.4261 118.019 63.4606 118.108C63.4951 118.197 63.5115 118.292 63.5091 118.387C63.5091 118.535 63.3429 133.5 69.3253 137.045C75.16 140.498 83.1274 132.134 83.1735 132.051C83.3106 131.935 83.4854 131.873 83.6649 131.878C83.8443 131.884 84.0156 131.955 84.1459 132.078C84.2762 132.201 84.3565 132.369 84.3713 132.548C84.386 132.726 84.3342 132.904 84.2259 133.048C83.9489 133.352 78.2527 139.344 72.4457 139.344Z" fill="#491DC5"/>
<path d="M66.4562 43.5611C68.5722 43.5611 70.2877 41.8457 70.2877 39.7298C70.2877 37.6138 68.5722 35.8984 66.4562 35.8984C64.3403 35.8984 62.625 37.6138 62.625 39.7298C62.625 41.8457 64.3403 43.5611 66.4562 43.5611Z" fill="#491DC5"/>
<path d="M80.6066 43.5611C82.7226 43.5611 84.4379 41.8457 84.4379 39.7298C84.4379 37.6138 82.7226 35.8984 80.6066 35.8984C78.4906 35.8984 76.7754 37.6138 76.7754 39.7298C76.7754 41.8457 78.4906 43.5611 80.6066 43.5611Z" fill="white"/>
<rect x="206.814" y="79.252" width="7.83756" height="26.7783" transform="rotate(-9.10137 206.814 79.252)" fill="#491DC5"/>
<rect x="192.867" y="68.5879" width="7.83756" height="39.5144" transform="rotate(-9.10137 192.867 68.5879)" fill="#7F61D6"/>
<path d="M175.779 71.3262L182.03 110.343L223.949 103.628" stroke="#020202" stroke-width="4.13485" stroke-linecap="round"/>
</svg>
